<svg width="56" height="56" viewBox="0 0 56 56" fill="none" xmlns="http://www.w3.org/2000/svg">
<path d="M0 49C0 50.8565 0.737498 52.637 2.05025 53.9497C3.36301 55.2625 5.14348 56 7 56H49C50.8565 56 52.637 55.2625 53.9497 53.9497C55.2625 52.637 56 50.8565 56 49V7C56 5.14348 55.2625 3.36301 53.9497 2.05025C52.637 0.737498 50.8565 0 49 0L7 0C5.14348 0 3.36301 0.737498 2.05025 2.05025C0.737498 3.36301 0 5.14348 0 7L0 49ZM15.75 26.25H36.0255L28.511 18.739C28.1824 18.4104 27.9978 17.9647 27.9978 17.5C27.9978 17.0353 28.1824 16.5896 28.511 16.261C28.8396 15.9324 29.2853 15.7478 29.75 15.7478C30.2147 15.7478 30.6604 15.9324 30.989 16.261L41.489 26.761C41.652 26.9236 41.7813 27.1167 41.8695 27.3293C41.9577 27.5419 42.0031 27.7698 42.0031 28C42.0031 28.2302 41.9577 28.4581 41.8695 28.6707C41.7813 28.8833 41.652 29.0764 41.489 29.239L30.989 39.739C30.6604 40.0676 30.2147 40.2522 29.75 40.2522C29.2853 40.2522 28.8396 40.0676 28.511 39.739C28.1824 39.4104 27.9978 38.9647 27.9978 38.5C27.9978 38.0353 28.1824 37.5896 28.511 37.261L36.0255 29.75H15.75C15.2859 29.75 14.8408 29.5656 14.5126 29.2374C14.1844 28.9093 14 28.4641 14 28C14 27.5359 14.1844 27.0908 14.5126 26.7626C14.8408 26.4344 15.2859 26.25 15.75 26.25Z" fill="#FF3B5E"/>
</svg>
