<svg width="56" height="56" viewBox="0 0 56 56" fill="#000000" xmlns="http://www.w3.org/2000/svg">
<path d="M27.9933 19.6631C23.4028 19.6631 19.6566 23.4094 19.6566 28C19.6566 32.5906 23.4028 36.3369 27.9933 36.3369C32.5838 36.3369 36.33 32.5906 36.33 28C36.33 23.4094 32.5838 19.6631 27.9933 19.6631ZM52.9972 28C52.9972 24.5477 53.0285 21.1266 52.8346 17.6805C52.6407 13.6778 51.7276 10.1254 48.8007 7.19845C45.8675 4.26521 42.3214 3.35835 38.3188 3.16447C34.8665 2.97059 31.4455 3.00186 27.9995 3.00186C24.5473 3.00186 21.1263 2.97059 17.6803 3.16447C13.6776 3.35835 10.1253 4.27147 7.19837 7.19845C4.26519 10.1317 3.35834 13.6778 3.16447 17.6805C2.97059 21.1329 3.00186 24.5539 3.00186 28C3.00186 31.4461 2.97059 34.8734 3.16447 38.3195C3.35834 42.3222 4.27144 45.8746 7.19837 48.8016C10.1315 51.7348 13.6776 52.6417 17.6803 52.8355C21.1325 53.0294 24.5535 52.9981 27.9995 52.9981C31.4518 52.9981 34.8728 53.0294 38.3188 52.8355C42.3214 52.6417 45.8738 51.7285 48.8007 48.8016C51.7339 45.8683 52.6407 42.3222 52.8346 38.3195C53.0347 34.8734 52.9972 31.4523 52.9972 28ZM27.9933 40.8274C20.8949 40.8274 15.1661 35.0985 15.1661 28C15.1661 20.9015 20.8949 15.1726 27.9933 15.1726C35.0917 15.1726 40.8205 20.9015 40.8205 28C40.8205 35.0985 35.0917 40.8274 27.9933 40.8274ZM41.3458 17.643C39.6885 17.643 38.3501 16.3046 38.3501 14.6472C38.3501 12.9899 39.6885 11.6515 41.3458 11.6515C43.0031 11.6515 44.3415 12.9899 44.3415 14.6472C44.342 15.0408 44.2649 15.4306 44.1145 15.7942C43.9641 16.1579 43.7435 16.4884 43.4652 16.7667C43.1869 17.0449 42.8565 17.2656 42.4928 17.416C42.1291 17.5663 41.7393 17.6435 41.3458 17.643Z" fill="black"/>
</svg>
