<svg width="56" height="56" viewBox="0 0 56 56" fill="none" xmlns="http://www.w3.org/2000/svg">
<circle cx="28" cy="28" r="28" fill="black"/>
<path d="M13.091 28.5238L19.5283 30.9241L22.0378 38.998C22.1469 39.5436 22.8015 39.6527 23.238 39.3254L26.8385 36.3795C27.1658 36.0521 27.7113 36.0521 28.1478 36.3795L34.5851 41.0711C35.0215 41.3984 35.6762 41.1802 35.7853 40.6346L40.586 17.7222C40.6951 17.1766 40.1495 16.6311 39.604 16.8493L13.091 27.1054C12.4363 27.3236 12.4363 28.3055 13.091 28.5238ZM21.7105 29.7239L34.3669 21.9773C34.5851 21.8682 34.8033 22.1956 34.5851 22.3047L24.2199 32.0152C23.8926 32.3425 23.5653 32.7789 23.5653 33.3245L23.238 35.943C23.238 36.2704 22.6924 36.3795 22.5833 35.943L21.274 31.1423C20.9467 30.5968 21.1649 29.9421 21.7105 29.7239Z" fill="white"/>
</svg>
