<svg width="56" height="56" viewBox="0 0 56 56" fill="none" xmlns="http://www.w3.org/2000/svg">
<circle cx="28" cy="28" r="28" fill="black"/>
<path d="M36.7555 14.7643C31.4194 13.7452 25.878 13.7452 20.5419 14.7643C18.1817 15.2738 15.2058 18.1271 14.6927 20.369C13.7691 24.7509 13.7691 29.2346 14.6927 33.6165C15.3084 35.8584 18.2843 38.7117 20.5419 39.2212C20.6445 39.2212 20.7471 39.3231 20.7471 39.425V45.845C20.7471 46.1507 21.1576 46.3545 21.3628 46.0488L24.4414 42.8898C24.4414 42.8898 26.9042 40.3422 27.3147 39.9345C27.3147 39.9345 27.4173 39.8326 27.5199 39.8326C30.5984 39.9345 33.7796 39.6288 36.8581 39.1193C39.2183 38.6098 42.1942 35.7565 42.7073 33.5146C43.6309 29.1327 43.6309 24.649 42.7073 20.2671C42.0916 18.1271 39.1157 15.2738 36.7555 14.7643ZM36.8581 33.9222C36.345 34.9413 35.7293 35.7565 34.7031 36.266C34.3953 36.3679 34.0874 36.4698 33.7796 36.5717C33.3691 36.4698 33.0613 36.3679 32.7534 36.266C29.4696 34.9413 26.3911 33.107 23.9283 30.4575C22.5942 28.9289 21.4654 27.1966 20.5419 25.3623C20.1314 24.4451 19.7209 23.6299 19.4131 22.7128C19.1052 21.8976 19.6183 21.0823 20.1314 20.4709C20.6445 19.8595 21.2602 19.4519 21.9785 19.1461C22.4916 18.8404 23.0047 19.0442 23.4152 19.4519C24.2361 20.4709 25.0571 21.4899 25.6728 22.6109C26.0832 23.3242 25.9806 24.1394 25.2623 24.649C25.0571 24.7509 24.9544 24.8528 24.7492 25.0566C24.6466 25.1585 24.4414 25.2604 24.3387 25.4642C24.1335 25.7699 24.1335 26.0756 24.2361 26.3813C25.0571 28.7251 26.5963 30.5594 28.9565 31.5784C29.367 31.7822 29.6749 31.8841 30.188 31.8841C30.9063 31.7822 31.2141 30.967 31.7272 30.5594C32.2403 30.1518 32.856 30.1518 33.4717 30.4575C33.9848 30.7632 34.4979 31.1708 35.1136 31.5784C35.6267 31.986 36.1398 32.2917 36.6529 32.6994C36.9607 32.9032 37.0634 33.4127 36.8581 33.9222ZM32.5482 26.2794C32.3429 26.2794 32.4455 26.2794 32.5482 26.2794C32.1377 26.2794 32.0351 26.0756 31.9325 25.7699C31.9325 25.5661 31.9325 25.2604 31.8298 25.0566C31.7272 24.649 31.522 24.2413 31.1115 23.9356C30.9063 23.8337 30.701 23.7318 30.4958 23.6299C30.188 23.528 29.9827 23.528 29.6749 23.528C29.367 23.4261 29.2644 23.2223 29.2644 22.9166C29.2644 22.7128 29.5723 22.509 29.7775 22.509C31.4194 22.6109 32.6508 23.528 32.856 25.4642C32.856 25.5661 32.856 25.7699 32.856 25.8718C32.856 26.0756 32.7534 26.2794 32.5482 26.2794ZM31.522 21.7956C31.0089 21.5918 30.4958 21.388 29.8801 21.2861C29.6749 21.2861 29.367 21.1842 29.1618 21.1842C28.8539 21.1842 28.6487 20.9804 28.7513 20.6747C28.7513 20.369 28.9565 20.1652 29.2644 20.2671C30.2906 20.369 31.2141 20.5728 32.1377 20.9804C33.9848 21.8976 35.011 23.4261 35.3188 25.4642C35.3188 25.5661 35.3188 25.668 35.3188 25.7699C35.3188 25.9737 35.3188 26.1775 35.3188 26.4832C35.3188 26.5851 35.3188 26.687 35.3188 26.7889C35.2162 27.1966 34.4979 27.2985 34.3953 26.7889C34.3953 26.687 34.2927 26.4832 34.2927 26.3813C34.2927 25.4642 34.0874 24.5471 33.677 23.7318C33.0613 22.8147 32.3429 22.2033 31.522 21.7956ZM37.0633 27.9099C36.7555 27.9099 36.5503 27.6042 36.5503 27.2985C36.5503 26.687 36.4476 26.0756 36.345 25.4642C35.9346 22.2033 33.2665 19.5538 30.0853 19.0442C29.5723 18.9423 29.0592 18.9423 28.6487 18.8404C28.3408 18.8404 27.9304 18.8404 27.8277 18.4328C27.7251 18.1271 28.033 17.8214 28.3408 17.8214C28.4435 17.8214 28.5461 17.8214 28.5461 17.8214C32.7534 17.9233 28.7513 17.8214 28.5461 17.8214C32.856 17.9233 36.4476 20.7766 37.166 25.0566C37.2686 25.7699 37.3712 26.4832 37.3712 27.2985C37.5764 27.6042 37.3712 27.9099 37.0633 27.9099Z" fill="white"/>
</svg>
